<mxfile host="app.diagrams.net" agent="Mozilla/5.0 (Windows NT 10.0; Win64; x64) AppleWebKit/537.36 (KHTML, like Gecko) Chrome/131.0.0.0 Safari/537.36" version="26.2.14">
  <diagram name="Page-1" id="e7e014a7-5840-1c2e-5031-d8a46d1fe8dd">
    <mxGraphModel dx="2041" dy="431" grid="1" gridSize="10" guides="1" tooltips="1" connect="1" arrows="1" fold="1" page="1" pageScale="1" pageWidth="1169" pageHeight="826" background="none" math="0" shadow="0">
      <root>
        <mxCell id="0" />
        <mxCell id="1" parent="0" />
        <mxCell id="2" value="Vendedor" style="swimlane;whiteSpace=wrap" parent="1" vertex="1">
          <mxGeometry x="-220" y="190" width="740" height="720" as="geometry" />
        </mxCell>
        <mxCell id="5qw4nmm1jzec7aXntuid-45" value="" style="edgeStyle=orthogonalEdgeStyle;rounded=0;orthogonalLoop=1;jettySize=auto;html=1;strokeColor=#FF6666;" parent="2" source="5" target="7" edge="1">
          <mxGeometry relative="1" as="geometry" />
        </mxCell>
        <mxCell id="5" value="" style="ellipse;shape=startState;fillColor=#000000;strokeColor=#ff0000;" parent="2" vertex="1">
          <mxGeometry x="125" y="45" width="30" height="30" as="geometry" />
        </mxCell>
        <mxCell id="7" value="Acciona enviar&#xa;Â Pedido" style="" parent="2" vertex="1">
          <mxGeometry x="85" y="110" width="110" height="50" as="geometry" />
        </mxCell>
        <mxCell id="8" value="Verificar stock &#xa;de cada producto" style="" parent="2" vertex="1">
          <mxGeometry x="85" y="190" width="110" height="50" as="geometry" />
        </mxCell>
        <mxCell id="9" value="" style="endArrow=open;strokeColor=#FF0000;endFill=1;rounded=0" parent="2" source="7" target="8" edge="1">
          <mxGeometry relative="1" as="geometry" />
        </mxCell>
        <mxCell id="11" value="" style="endArrow=open;strokeColor=#FF0000;endFill=1;rounded=0;exitX=1;exitY=0.5;exitDx=0;exitDy=0;entryX=0.4;entryY=0.333;entryDx=0;entryDy=0;entryPerimeter=0;" parent="2" source="nYx2TbOlyZMaFzmoQOSY-41" target="nYx2TbOlyZMaFzmoQOSY-46" edge="1">
          <mxGeometry relative="1" as="geometry">
            <mxPoint x="230" y="410" as="sourcePoint" />
          </mxGeometry>
        </mxCell>
        <mxCell id="5qw4nmm1jzec7aXntuid-42" value="Formulario validado con datos necesaios para cargar pedido" style="shape=note;whiteSpace=wrap;size=17" parent="2" vertex="1">
          <mxGeometry x="10" y="30" width="104.5" height="60" as="geometry" />
        </mxCell>
        <mxCell id="nYx2TbOlyZMaFzmoQOSY-41" value="stock de &#xa;pedido completo" style="rhombus;fillColor=#ffffc0;strokeColor=#ff0000;" vertex="1" parent="2">
          <mxGeometry x="70" y="283" width="140" height="70" as="geometry" />
        </mxCell>
        <mxCell id="nYx2TbOlyZMaFzmoQOSY-42" value="" style="edgeStyle=elbowEdgeStyle;elbow=horizontal;align=left;verticalAlign=bottom;endArrow=open;endSize=8;strokeColor=#FF0000;endFill=1;rounded=0;entryX=0.5;entryY=0;entryDx=0;entryDy=0;" edge="1" parent="2" target="nYx2TbOlyZMaFzmoQOSY-41">
          <mxGeometry x="-1" relative="1" as="geometry">
            <mxPoint x="45" y="200" as="targetPoint" />
            <Array as="points">
              <mxPoint x="140" y="280" />
            </Array>
            <mxPoint x="140" y="240" as="sourcePoint" />
          </mxGeometry>
        </mxCell>
        <mxCell id="nYx2TbOlyZMaFzmoQOSY-44" value="no" style="text;html=1;align=center;verticalAlign=middle;resizable=0;points=[];autosize=1;strokeColor=none;fillColor=none;" vertex="1" parent="2">
          <mxGeometry x="155" y="347" width="40" height="30" as="geometry" />
        </mxCell>
        <mxCell id="nYx2TbOlyZMaFzmoQOSY-46" value="" style="whiteSpace=wrap;strokeColor=#FF0000;fillColor=#FF0000" vertex="1" parent="2">
          <mxGeometry x="230" y="285" width="5" height="105" as="geometry" />
        </mxCell>
        <mxCell id="nYx2TbOlyZMaFzmoQOSY-49" value="Descontar&#xa;stock" style="" vertex="1" parent="2">
          <mxGeometry x="275" y="283" width="85" height="40" as="geometry" />
        </mxCell>
        <mxCell id="nYx2TbOlyZMaFzmoQOSY-48" value="" style="endArrow=open;strokeColor=#FF0000;endFill=1;rounded=0;exitX=0.2;exitY=0.181;exitDx=0;exitDy=0;entryX=0;entryY=0.5;entryDx=0;entryDy=0;exitPerimeter=0;" edge="1" parent="2" source="nYx2TbOlyZMaFzmoQOSY-46" target="nYx2TbOlyZMaFzmoQOSY-49">
          <mxGeometry relative="1" as="geometry">
            <mxPoint x="220" y="328" as="sourcePoint" />
            <mxPoint x="285" y="307" as="targetPoint" />
            <Array as="points" />
          </mxGeometry>
        </mxCell>
        <mxCell id="nYx2TbOlyZMaFzmoQOSY-51" value="sin stock &#xa;algun producto" style="rhombus;fillColor=#ffffc0;strokeColor=#ff0000;" vertex="1" parent="2">
          <mxGeometry x="262.5" y="100" width="110" height="70" as="geometry" />
        </mxCell>
        <mxCell id="nYx2TbOlyZMaFzmoQOSY-52" value="Verificar stock &#xa;de cada producto" style="" vertex="1" parent="2">
          <mxGeometry x="262.5" y="213" width="110" height="50" as="geometry" />
        </mxCell>
        <mxCell id="nYx2TbOlyZMaFzmoQOSY-53" value="" style="endArrow=open;strokeColor=#FF0000;endFill=1;rounded=0;exitX=0.5;exitY=0;exitDx=0;exitDy=0;" edge="1" parent="2" source="nYx2TbOlyZMaFzmoQOSY-49">
          <mxGeometry relative="1" as="geometry">
            <mxPoint x="245" y="317" as="sourcePoint" />
            <mxPoint x="318" y="260" as="targetPoint" />
            <Array as="points" />
          </mxGeometry>
        </mxCell>
        <mxCell id="nYx2TbOlyZMaFzmoQOSY-54" value="" style="endArrow=open;strokeColor=#FF0000;endFill=1;rounded=0;entryX=0.5;entryY=1;entryDx=0;entryDy=0;exitX=0.5;exitY=0;exitDx=0;exitDy=0;" edge="1" parent="2" source="nYx2TbOlyZMaFzmoQOSY-52" target="nYx2TbOlyZMaFzmoQOSY-51">
          <mxGeometry relative="1" as="geometry">
            <mxPoint x="328" y="230" as="sourcePoint" />
            <mxPoint x="338" y="280" as="targetPoint" />
            <Array as="points" />
          </mxGeometry>
        </mxCell>
        <mxCell id="nYx2TbOlyZMaFzmoQOSY-55" value="Si" style="text;html=1;align=center;verticalAlign=middle;resizable=0;points=[];autosize=1;strokeColor=none;fillColor=none;" vertex="1" parent="2">
          <mxGeometry x="290" y="70" width="30" height="30" as="geometry" />
        </mxCell>
        <mxCell id="nYx2TbOlyZMaFzmoQOSY-57" value="Enviar alerta &#xa;producto sin stock&#xa;" style="" vertex="1" parent="2">
          <mxGeometry x="580" y="37.5" width="100" height="45" as="geometry" />
        </mxCell>
        <mxCell id="nYx2TbOlyZMaFzmoQOSY-58" value="" style="whiteSpace=wrap;strokeColor=#FF0000;fillColor=#FF0000" vertex="1" parent="2">
          <mxGeometry x="372.5" y="50" width="5" height="45" as="geometry" />
        </mxCell>
        <mxCell id="nYx2TbOlyZMaFzmoQOSY-60" value="" style="endArrow=open;strokeColor=#FF0000;endFill=1;rounded=0;exitX=0.5;exitY=0;exitDx=0;exitDy=0;" edge="1" parent="2" source="nYx2TbOlyZMaFzmoQOSY-51">
          <mxGeometry relative="1" as="geometry">
            <mxPoint x="383" y="145" as="sourcePoint" />
            <mxPoint x="370" y="70" as="targetPoint" />
            <Array as="points">
              <mxPoint x="318" y="70" />
            </Array>
          </mxGeometry>
        </mxCell>
        <mxCell id="nYx2TbOlyZMaFzmoQOSY-62" value="" style="endArrow=open;strokeColor=#FF0000;endFill=1;rounded=0;exitX=1;exitY=0.25;exitDx=0;exitDy=0;entryX=0;entryY=0.5;entryDx=0;entryDy=0;" edge="1" parent="2" source="nYx2TbOlyZMaFzmoQOSY-58" target="nYx2TbOlyZMaFzmoQOSY-57">
          <mxGeometry relative="1" as="geometry">
            <mxPoint x="383" y="145" as="sourcePoint" />
            <mxPoint x="410" y="145" as="targetPoint" />
            <Array as="points" />
          </mxGeometry>
        </mxCell>
        <mxCell id="nYx2TbOlyZMaFzmoQOSY-63" value="Actualizar stock" style="" vertex="1" parent="2">
          <mxGeometry x="410" y="115" width="90" height="40" as="geometry" />
        </mxCell>
        <mxCell id="nYx2TbOlyZMaFzmoQOSY-56" value="" style="endArrow=open;strokeColor=#FF0000;endFill=1;rounded=0;exitX=1;exitY=0.5;exitDx=0;exitDy=0;entryX=0;entryY=0.5;entryDx=0;entryDy=0;" edge="1" parent="2" source="nYx2TbOlyZMaFzmoQOSY-51" target="nYx2TbOlyZMaFzmoQOSY-63">
          <mxGeometry relative="1" as="geometry">
            <mxPoint x="348" y="295" as="sourcePoint" />
            <mxPoint x="400" y="135" as="targetPoint" />
            <Array as="points" />
          </mxGeometry>
        </mxCell>
        <mxCell id="nYx2TbOlyZMaFzmoQOSY-64" value="" style="endArrow=open;strokeColor=#FF0000;endFill=1;rounded=0;exitX=1;exitY=0.75;exitDx=0;exitDy=0;entryX=0.5;entryY=0;entryDx=0;entryDy=0;" edge="1" parent="2" source="nYx2TbOlyZMaFzmoQOSY-58" target="nYx2TbOlyZMaFzmoQOSY-63">
          <mxGeometry relative="1" as="geometry">
            <mxPoint x="383" y="145" as="sourcePoint" />
            <mxPoint x="420" y="145" as="targetPoint" />
            <Array as="points">
              <mxPoint x="455" y="84" />
            </Array>
          </mxGeometry>
        </mxCell>
        <mxCell id="nYx2TbOlyZMaFzmoQOSY-45" value="Si" style="text;html=1;align=center;verticalAlign=middle;resizable=0;points=[];autosize=1;strokeColor=none;fillColor=none;" vertex="1" parent="2">
          <mxGeometry x="195" y="280" width="30" height="30" as="geometry" />
        </mxCell>
        <mxCell id="nYx2TbOlyZMaFzmoQOSY-65" value="no" style="text;html=1;align=center;verticalAlign=middle;resizable=0;points=[];autosize=1;strokeColor=none;fillColor=none;" vertex="1" parent="2">
          <mxGeometry x="370" y="108" width="40" height="30" as="geometry" />
        </mxCell>
        <mxCell id="nYx2TbOlyZMaFzmoQOSY-66" value="Guardar Pedido" style="" vertex="1" parent="2">
          <mxGeometry x="275" y="343" width="100" height="47" as="geometry" />
        </mxCell>
        <mxCell id="nYx2TbOlyZMaFzmoQOSY-67" value="" style="endArrow=open;strokeColor=#FF0000;endFill=1;rounded=0;exitX=1;exitY=0.75;exitDx=0;exitDy=0;entryX=0;entryY=0.5;entryDx=0;entryDy=0;" edge="1" parent="2" source="nYx2TbOlyZMaFzmoQOSY-46" target="nYx2TbOlyZMaFzmoQOSY-66">
          <mxGeometry relative="1" as="geometry">
            <mxPoint x="241" y="314" as="sourcePoint" />
            <mxPoint x="285" y="313" as="targetPoint" />
            <Array as="points" />
          </mxGeometry>
        </mxCell>
        <mxCell id="nYx2TbOlyZMaFzmoQOSY-68" value="" style="whiteSpace=wrap;strokeColor=#FF0000;fillColor=#FF0000" vertex="1" parent="2">
          <mxGeometry x="415" y="329" width="5" height="78" as="geometry" />
        </mxCell>
        <mxCell id="nYx2TbOlyZMaFzmoQOSY-71" value="" style="endArrow=open;strokeColor=#FF0000;endFill=1;rounded=0;exitX=1;exitY=0.5;exitDx=0;exitDy=0;entryX=0;entryY=0.5;entryDx=0;entryDy=0;" edge="1" parent="2" source="nYx2TbOlyZMaFzmoQOSY-66" target="nYx2TbOlyZMaFzmoQOSY-68">
          <mxGeometry relative="1" as="geometry">
            <mxPoint x="245" y="374" as="sourcePoint" />
            <mxPoint x="285" y="377" as="targetPoint" />
            <Array as="points" />
          </mxGeometry>
        </mxCell>
        <mxCell id="nYx2TbOlyZMaFzmoQOSY-74" value="" style="endArrow=open;strokeColor=#FF0000;endFill=1;rounded=0;entryX=0;entryY=0.5;entryDx=0;entryDy=0;" edge="1" parent="2" target="nYx2TbOlyZMaFzmoQOSY-78">
          <mxGeometry relative="1" as="geometry">
            <mxPoint x="417" y="370" as="sourcePoint" />
            <mxPoint x="460" y="390" as="targetPoint" />
            <Array as="points" />
          </mxGeometry>
        </mxCell>
        <mxCell id="nYx2TbOlyZMaFzmoQOSY-75" value="" style="ellipse;shape=endState;fillColor=#000000;strokeColor=#ff0000" vertex="1" parent="2">
          <mxGeometry x="500" y="495.75" width="30" height="30" as="geometry" />
        </mxCell>
        <mxCell id="nYx2TbOlyZMaFzmoQOSY-78" value="Confirmacion &#xa;pedido" style="" vertex="1" parent="2">
          <mxGeometry x="460" y="347" width="90" height="43" as="geometry" />
        </mxCell>
        <mxCell id="nYx2TbOlyZMaFzmoQOSY-79" value="" style="endArrow=open;strokeColor=#FF0000;endFill=1;rounded=0;exitX=0.422;exitY=1.023;exitDx=0;exitDy=0;exitPerimeter=0;entryX=0;entryY=0.25;entryDx=0;entryDy=0;" edge="1" parent="2" source="nYx2TbOlyZMaFzmoQOSY-78" target="nYx2TbOlyZMaFzmoQOSY-89">
          <mxGeometry relative="1" as="geometry">
            <mxPoint x="245" y="374" as="sourcePoint" />
            <mxPoint x="500" y="490" as="targetPoint" />
            <Array as="points">
              <mxPoint x="500" y="440" />
              <mxPoint x="410" y="440" />
              <mxPoint x="410" y="492" />
            </Array>
          </mxGeometry>
        </mxCell>
        <mxCell id="nYx2TbOlyZMaFzmoQOSY-76" value="Fin" style="text;html=1;align=center;verticalAlign=middle;resizable=0;points=[];autosize=1;strokeColor=none;fillColor=none;" vertex="1" parent="2">
          <mxGeometry x="470" y="530" width="40" height="30" as="geometry" />
        </mxCell>
        <mxCell id="nYx2TbOlyZMaFzmoQOSY-80" value="" style="edgeStyle=elbowEdgeStyle;elbow=horizontal;align=left;verticalAlign=bottom;endArrow=open;endSize=8;strokeColor=#FF0000;endFill=1;rounded=0;entryX=0.5;entryY=0;entryDx=0;entryDy=0;" edge="1" parent="2" target="nYx2TbOlyZMaFzmoQOSY-81">
          <mxGeometry x="-1" relative="1" as="geometry">
            <mxPoint x="139.5" y="396" as="targetPoint" />
            <Array as="points">
              <mxPoint x="139.5" y="393" />
            </Array>
            <mxPoint x="139.5" y="353" as="sourcePoint" />
          </mxGeometry>
        </mxCell>
        <mxCell id="nYx2TbOlyZMaFzmoQOSY-81" value="Validar &#xa;pedido parcial" style="" vertex="1" parent="2">
          <mxGeometry x="90" y="400" width="100" height="47" as="geometry" />
        </mxCell>
        <mxCell id="nYx2TbOlyZMaFzmoQOSY-82" value="productos &#xa;con stock&#xa;en pedidoÂ " style="rhombus;fillColor=#ffffc0;strokeColor=#ff0000;" vertex="1" parent="2">
          <mxGeometry x="70" y="480" width="140" height="70" as="geometry" />
        </mxCell>
        <mxCell id="nYx2TbOlyZMaFzmoQOSY-83" value="" style="edgeStyle=elbowEdgeStyle;elbow=horizontal;align=left;verticalAlign=bottom;endArrow=open;endSize=8;strokeColor=#FF0000;endFill=1;rounded=0;entryX=0.5;entryY=0;entryDx=0;entryDy=0;exitX=0.5;exitY=1;exitDx=0;exitDy=0;" edge="1" parent="2" source="nYx2TbOlyZMaFzmoQOSY-81" target="nYx2TbOlyZMaFzmoQOSY-82">
          <mxGeometry x="-1" relative="1" as="geometry">
            <mxPoint x="150" y="410" as="targetPoint" />
            <Array as="points" />
            <mxPoint x="149.5" y="363" as="sourcePoint" />
          </mxGeometry>
        </mxCell>
        <mxCell id="nYx2TbOlyZMaFzmoQOSY-84" value="Generar pedido" style="" vertex="1" parent="2">
          <mxGeometry x="225" y="495.75" width="80" height="38.5" as="geometry" />
        </mxCell>
        <mxCell id="nYx2TbOlyZMaFzmoQOSY-88" style="edgeStyle=orthogonalEdgeStyle;rounded=0;orthogonalLoop=1;jettySize=auto;html=1;exitX=0.5;exitY=0;exitDx=0;exitDy=0;entryX=0;entryY=0.5;entryDx=0;entryDy=0;strokeColor=#FF6666;" edge="1" parent="2" source="nYx2TbOlyZMaFzmoQOSY-86" target="nYx2TbOlyZMaFzmoQOSY-46">
          <mxGeometry relative="1" as="geometry" />
        </mxCell>
        <mxCell id="nYx2TbOlyZMaFzmoQOSY-86" value="generar" style="rhombus;fillColor=#ffffc0;strokeColor=#ff0000;" vertex="1" parent="2">
          <mxGeometry x="230" y="440" width="65" height="40" as="geometry" />
        </mxCell>
        <mxCell id="nYx2TbOlyZMaFzmoQOSY-91" style="edgeStyle=orthogonalEdgeStyle;rounded=0;orthogonalLoop=1;jettySize=auto;html=1;exitX=1;exitY=0.5;exitDx=0;exitDy=0;fillColor=#f8cecc;strokeColor=#FF0000;" edge="1" parent="2" source="nYx2TbOlyZMaFzmoQOSY-89">
          <mxGeometry relative="1" as="geometry">
            <mxPoint x="490" y="511" as="targetPoint" />
          </mxGeometry>
        </mxCell>
        <mxCell id="nYx2TbOlyZMaFzmoQOSY-89" value="" style="whiteSpace=wrap;strokeColor=#FF0000;fillColor=#FF0000" vertex="1" parent="2">
          <mxGeometry x="455" y="472" width="5" height="78" as="geometry" />
        </mxCell>
        <mxCell id="nYx2TbOlyZMaFzmoQOSY-85" value="si" style="text;html=1;align=center;verticalAlign=middle;resizable=0;points=[];autosize=1;strokeColor=none;fillColor=none;" vertex="1" parent="2">
          <mxGeometry x="180" y="472" width="30" height="30" as="geometry" />
        </mxCell>
        <mxCell id="nYx2TbOlyZMaFzmoQOSY-92" style="edgeStyle=orthogonalEdgeStyle;rounded=0;orthogonalLoop=1;jettySize=auto;html=1;exitX=1;exitY=0.5;exitDx=0;exitDy=0;fillColor=#f8cecc;strokeColor=#FF0000;entryX=0;entryY=0.5;entryDx=0;entryDy=0;" edge="1" parent="2" source="nYx2TbOlyZMaFzmoQOSY-82" target="nYx2TbOlyZMaFzmoQOSY-84">
          <mxGeometry relative="1" as="geometry">
            <mxPoint x="350" y="540" as="targetPoint" />
            <mxPoint x="470" y="521" as="sourcePoint" />
          </mxGeometry>
        </mxCell>
        <mxCell id="nYx2TbOlyZMaFzmoQOSY-95" value="no" style="text;html=1;align=center;verticalAlign=middle;resizable=0;points=[];autosize=1;strokeColor=none;fillColor=none;" vertex="1" parent="2">
          <mxGeometry x="275" y="430" width="40" height="30" as="geometry" />
        </mxCell>
        <mxCell id="nYx2TbOlyZMaFzmoQOSY-96" style="edgeStyle=orthogonalEdgeStyle;rounded=0;orthogonalLoop=1;jettySize=auto;html=1;fillColor=#f8cecc;strokeColor=#FF0000;exitX=1;exitY=0.5;exitDx=0;exitDy=0;entryX=0;entryY=0.5;entryDx=0;entryDy=0;" edge="1" parent="2" source="nYx2TbOlyZMaFzmoQOSY-86" target="nYx2TbOlyZMaFzmoQOSY-89">
          <mxGeometry relative="1" as="geometry">
            <mxPoint x="520" y="541" as="targetPoint" />
            <mxPoint x="490" y="541" as="sourcePoint" />
          </mxGeometry>
        </mxCell>
        <mxCell id="nYx2TbOlyZMaFzmoQOSY-97" style="edgeStyle=orthogonalEdgeStyle;rounded=0;orthogonalLoop=1;jettySize=auto;html=1;fillColor=#f8cecc;strokeColor=#FF0000;exitX=0.5;exitY=1;exitDx=0;exitDy=0;entryX=0;entryY=0.75;entryDx=0;entryDy=0;" edge="1" parent="2" source="nYx2TbOlyZMaFzmoQOSY-82" target="nYx2TbOlyZMaFzmoQOSY-89">
          <mxGeometry relative="1" as="geometry">
            <mxPoint x="465" y="521" as="targetPoint" />
            <mxPoint x="305" y="470" as="sourcePoint" />
          </mxGeometry>
        </mxCell>
        <mxCell id="nYx2TbOlyZMaFzmoQOSY-98" value="no" style="text;html=1;align=center;verticalAlign=middle;resizable=0;points=[];autosize=1;strokeColor=none;fillColor=none;" vertex="1" parent="2">
          <mxGeometry x="150" y="540" width="40" height="30" as="geometry" />
        </mxCell>
        <mxCell id="nYx2TbOlyZMaFzmoQOSY-100" style="edgeStyle=orthogonalEdgeStyle;rounded=0;orthogonalLoop=1;jettySize=auto;html=1;entryX=0;entryY=0.5;entryDx=0;entryDy=0;" edge="1" parent="2" source="nYx2TbOlyZMaFzmoQOSY-99" target="nYx2TbOlyZMaFzmoQOSY-81">
          <mxGeometry relative="1" as="geometry">
            <Array as="points">
              <mxPoint x="30" y="424" />
            </Array>
          </mxGeometry>
        </mxCell>
        <mxCell id="nYx2TbOlyZMaFzmoQOSY-99" value="Si en el pedido existen productos con stock , podra generar pedido parcial" style="shape=note;whiteSpace=wrap;size=17" vertex="1" parent="2">
          <mxGeometry x="10" y="590" width="120" height="83.5" as="geometry" />
        </mxCell>
        <mxCell id="3" value="Responsable de producciÃ³n" style="swimlane;whiteSpace=wrap;startSize=23;" parent="1" vertex="1">
          <mxGeometry x="520" y="190" width="280" height="720" as="geometry" />
        </mxCell>
        <mxCell id="nYx2TbOlyZMaFzmoQOSY-77" value="Alerta pedidoÂ &#xa;confirmado" style="" vertex="1" parent="3">
          <mxGeometry x="65" y="200" width="110" height="50" as="geometry" />
        </mxCell>
        <mxCell id="4" value="Administrativa" style="swimlane;whiteSpace=wrap;startSize=23;" parent="1" vertex="1">
          <mxGeometry x="800" y="190" width="280" height="720" as="geometry" />
        </mxCell>
        <mxCell id="nYx2TbOlyZMaFzmoQOSY-87" value="si" style="text;html=1;align=center;verticalAlign=middle;resizable=0;points=[];autosize=1;strokeColor=none;fillColor=none;" vertex="1" parent="1">
          <mxGeometry x="225" y="628" width="30" height="30" as="geometry" />
        </mxCell>
        <mxCell id="nYx2TbOlyZMaFzmoQOSY-94" style="edgeStyle=orthogonalEdgeStyle;rounded=0;orthogonalLoop=1;jettySize=auto;html=1;fillColor=#f8cecc;strokeColor=#FF0000;entryX=0.5;entryY=1;entryDx=0;entryDy=0;" edge="1" parent="1" target="nYx2TbOlyZMaFzmoQOSY-86">
          <mxGeometry relative="1" as="geometry">
            <mxPoint x="510" y="731" as="targetPoint" />
            <mxPoint x="263" y="700" as="sourcePoint" />
          </mxGeometry>
        </mxCell>
        <mxCell id="nYx2TbOlyZMaFzmoQOSY-73" value="" style="endArrow=open;strokeColor=#FF0000;endFill=1;rounded=0;exitX=1;exitY=0.25;exitDx=0;exitDy=0;entryX=0;entryY=0.5;entryDx=0;entryDy=0;" edge="1" parent="1" source="nYx2TbOlyZMaFzmoQOSY-68" target="nYx2TbOlyZMaFzmoQOSY-77">
          <mxGeometry relative="1" as="geometry">
            <mxPoint x="265" y="534" as="sourcePoint" />
            <mxPoint x="500" y="509" as="targetPoint" />
            <Array as="points" />
          </mxGeometry>
        </mxCell>
      </root>
    </mxGraphModel>
  </diagram>
</mxfile>
